<mxfile host="app.diagrams.net" modified="2023-05-28T10:42:32.278Z" agent="Mozilla/5.0 (Windows NT 10.0; Win64; x64) AppleWebKit/537.36 (KHTML, like Gecko) Chrome/113.0.0.0 Safari/537.36 Edg/113.0.1774.57" etag="d2h5lYb2F0oXs1scq3M1" version="21.3.5" type="github">
  <diagram name="第 1 页" id="Yhz_XK_RX5MQZ14S4Ls-">
    <mxGraphModel dx="825" dy="541" grid="0" gridSize="10" guides="1" tooltips="1" connect="1" arrows="1" fold="1" page="1" pageScale="1" pageWidth="827" pageHeight="1169" math="0" shadow="0">
      <root>
        <mxCell id="0" />
        <mxCell id="1" parent="0" />
        <mxCell id="_UI63cZPZsT7YoqHEjW4-95" value="" style="rounded=1;whiteSpace=wrap;html=1;" parent="1" vertex="1">
          <mxGeometry x="458.75" y="108" width="90" height="130" as="geometry" />
        </mxCell>
        <mxCell id="_UI63cZPZsT7YoqHEjW4-92" value="多&lt;br&gt;粒&lt;br&gt;度&lt;br&gt;膨&lt;br&gt;胀&lt;br&gt;卷&lt;br&gt;积" style="rounded=0;whiteSpace=wrap;html=1;fillColor=#f5f5f5;fontColor=#333333;strokeColor=#666666;" parent="1" vertex="1">
          <mxGeometry x="339.5" y="110.5" width="100" height="210" as="geometry" />
        </mxCell>
        <mxCell id="_UI63cZPZsT7YoqHEjW4-1" value="输入：专利文本" style="text;html=1;align=center;verticalAlign=middle;resizable=0;points=[];autosize=1;strokeColor=none;fillColor=none;" parent="1" vertex="1">
          <mxGeometry x="101" y="82" width="102" height="26" as="geometry" />
        </mxCell>
        <mxCell id="_UI63cZPZsT7YoqHEjW4-3" value="" style="ellipse;whiteSpace=wrap;html=1;fillColor=#f5f5f5;fontColor=#333333;strokeColor=#666666;" parent="1" vertex="1">
          <mxGeometry x="144.5" y="120.5" width="15" height="10" as="geometry" />
        </mxCell>
        <mxCell id="_UI63cZPZsT7YoqHEjW4-4" value="&lt;font style=&quot;font-size: 6px;&quot;&gt;X&lt;sub style=&quot;font-size: 6px;&quot;&gt;1&lt;/sub&gt;&lt;/font&gt;" style="text;html=1;align=center;verticalAlign=top;resizable=0;points=[];autosize=1;strokeColor=none;fillColor=none;fontSize=6;" parent="1" vertex="1">
          <mxGeometry x="104.5" y="110.5" width="40" height="30" as="geometry" />
        </mxCell>
        <mxCell id="_UI63cZPZsT7YoqHEjW4-7" value="" style="ellipse;whiteSpace=wrap;html=1;fillColor=#f5f5f5;fontColor=#333333;strokeColor=#666666;" parent="1" vertex="1">
          <mxGeometry x="144.5" y="150.5" width="15" height="10" as="geometry" />
        </mxCell>
        <mxCell id="_UI63cZPZsT7YoqHEjW4-8" value="&lt;font style=&quot;font-size: 6px;&quot;&gt;X&lt;sub style=&quot;font-size: 6px;&quot;&gt;2&lt;/sub&gt;&lt;/font&gt;" style="text;html=1;align=center;verticalAlign=top;resizable=0;points=[];autosize=1;strokeColor=none;fillColor=none;fontSize=6;" parent="1" vertex="1">
          <mxGeometry x="104.5" y="140.5" width="40" height="30" as="geometry" />
        </mxCell>
        <mxCell id="_UI63cZPZsT7YoqHEjW4-9" value="" style="ellipse;whiteSpace=wrap;html=1;fillColor=#f5f5f5;fontColor=#333333;strokeColor=#666666;" parent="1" vertex="1">
          <mxGeometry x="144.5" y="180.5" width="15" height="10" as="geometry" />
        </mxCell>
        <mxCell id="_UI63cZPZsT7YoqHEjW4-10" value="&lt;font style=&quot;font-size: 6px;&quot;&gt;X&lt;sub style=&quot;font-size: 6px;&quot;&gt;3&lt;/sub&gt;&lt;/font&gt;" style="text;html=1;align=center;verticalAlign=top;resizable=0;points=[];autosize=1;strokeColor=none;fillColor=none;fontSize=6;" parent="1" vertex="1">
          <mxGeometry x="104.5" y="170.5" width="40" height="30" as="geometry" />
        </mxCell>
        <mxCell id="_UI63cZPZsT7YoqHEjW4-11" value="" style="ellipse;whiteSpace=wrap;html=1;fillColor=#f5f5f5;fontColor=#333333;strokeColor=#666666;" parent="1" vertex="1">
          <mxGeometry x="144.5" y="210.5" width="15" height="10" as="geometry" />
        </mxCell>
        <mxCell id="_UI63cZPZsT7YoqHEjW4-12" value="..." style="text;html=1;align=center;verticalAlign=top;resizable=0;points=[];autosize=1;strokeColor=none;fillColor=none;fontSize=6;" parent="1" vertex="1">
          <mxGeometry x="109.5" y="200.5" width="30" height="30" as="geometry" />
        </mxCell>
        <mxCell id="_UI63cZPZsT7YoqHEjW4-17" value="" style="ellipse;whiteSpace=wrap;html=1;fillColor=#f5f5f5;fontColor=#333333;strokeColor=#666666;" parent="1" vertex="1">
          <mxGeometry x="144.5" y="240.5" width="15" height="10" as="geometry" />
        </mxCell>
        <mxCell id="_UI63cZPZsT7YoqHEjW4-18" value="..." style="text;html=1;align=center;verticalAlign=top;resizable=0;points=[];autosize=1;strokeColor=none;fillColor=none;fontSize=6;" parent="1" vertex="1">
          <mxGeometry x="109.5" y="230.5" width="30" height="30" as="geometry" />
        </mxCell>
        <mxCell id="_UI63cZPZsT7YoqHEjW4-21" value="" style="ellipse;whiteSpace=wrap;html=1;fillColor=#f5f5f5;fontColor=#333333;strokeColor=#666666;" parent="1" vertex="1">
          <mxGeometry x="144.5" y="270.5" width="15" height="10" as="geometry" />
        </mxCell>
        <mxCell id="_UI63cZPZsT7YoqHEjW4-22" value="..." style="text;html=1;align=center;verticalAlign=top;resizable=0;points=[];autosize=1;strokeColor=none;fillColor=none;fontSize=6;" parent="1" vertex="1">
          <mxGeometry x="109.5" y="260.5" width="30" height="30" as="geometry" />
        </mxCell>
        <mxCell id="_UI63cZPZsT7YoqHEjW4-23" value="" style="ellipse;whiteSpace=wrap;html=1;fillColor=#f5f5f5;fontColor=#333333;strokeColor=#666666;" parent="1" vertex="1">
          <mxGeometry x="144.5" y="300.5" width="15" height="10" as="geometry" />
        </mxCell>
        <mxCell id="_UI63cZPZsT7YoqHEjW4-24" value="&lt;font style=&quot;font-size: 6px;&quot;&gt;X&lt;sub style=&quot;font-size: 2px;&quot;&gt;N&lt;/sub&gt;&lt;/font&gt;" style="text;html=1;align=center;verticalAlign=top;resizable=0;points=[];autosize=1;strokeColor=none;fillColor=none;fontSize=6;" parent="1" vertex="1">
          <mxGeometry x="104.5" y="290.5" width="40" height="30" as="geometry" />
        </mxCell>
        <mxCell id="_UI63cZPZsT7YoqHEjW4-26" value="" style="endArrow=classic;html=1;rounded=0;exitX=1;exitY=0.5;exitDx=0;exitDy=0;endSize=3;" parent="1" source="_UI63cZPZsT7YoqHEjW4-3" edge="1">
          <mxGeometry width="50" height="50" relative="1" as="geometry">
            <mxPoint x="199.5" y="160.5" as="sourcePoint" />
            <mxPoint x="179.5" y="125.5" as="targetPoint" />
          </mxGeometry>
        </mxCell>
        <mxCell id="_UI63cZPZsT7YoqHEjW4-28" value="" style="endArrow=classic;html=1;rounded=0;exitX=1;exitY=0.5;exitDx=0;exitDy=0;endSize=3;" parent="1" edge="1">
          <mxGeometry width="50" height="50" relative="1" as="geometry">
            <mxPoint x="159.5" y="155.19" as="sourcePoint" />
            <mxPoint x="179.5" y="155.19" as="targetPoint" />
          </mxGeometry>
        </mxCell>
        <mxCell id="_UI63cZPZsT7YoqHEjW4-29" value="" style="endArrow=classic;html=1;rounded=0;exitX=1;exitY=0.5;exitDx=0;exitDy=0;endSize=3;" parent="1" edge="1">
          <mxGeometry width="50" height="50" relative="1" as="geometry">
            <mxPoint x="159.5" y="185.19" as="sourcePoint" />
            <mxPoint x="179.5" y="185.19" as="targetPoint" />
          </mxGeometry>
        </mxCell>
        <mxCell id="_UI63cZPZsT7YoqHEjW4-30" value="" style="endArrow=classic;html=1;rounded=0;exitX=1;exitY=0.5;exitDx=0;exitDy=0;endSize=3;" parent="1" edge="1">
          <mxGeometry width="50" height="50" relative="1" as="geometry">
            <mxPoint x="159.5" y="305.19" as="sourcePoint" />
            <mxPoint x="179.5" y="305.19" as="targetPoint" />
          </mxGeometry>
        </mxCell>
        <mxCell id="_UI63cZPZsT7YoqHEjW4-31" value="" style="endArrow=classic;html=1;rounded=0;exitX=1;exitY=0.5;exitDx=0;exitDy=0;endSize=3;" parent="1" edge="1">
          <mxGeometry width="50" height="50" relative="1" as="geometry">
            <mxPoint x="159.5" y="215.19" as="sourcePoint" />
            <mxPoint x="179.5" y="215.19" as="targetPoint" />
          </mxGeometry>
        </mxCell>
        <mxCell id="_UI63cZPZsT7YoqHEjW4-32" value="" style="endArrow=classic;html=1;rounded=0;exitX=1;exitY=0.5;exitDx=0;exitDy=0;endSize=3;" parent="1" edge="1">
          <mxGeometry width="50" height="50" relative="1" as="geometry">
            <mxPoint x="159.5" y="275.19" as="sourcePoint" />
            <mxPoint x="179.5" y="275.19" as="targetPoint" />
          </mxGeometry>
        </mxCell>
        <mxCell id="_UI63cZPZsT7YoqHEjW4-33" value="" style="endArrow=classic;html=1;rounded=0;exitX=1;exitY=0.5;exitDx=0;exitDy=0;endSize=3;" parent="1" edge="1">
          <mxGeometry width="50" height="50" relative="1" as="geometry">
            <mxPoint x="159.5" y="245.19" as="sourcePoint" />
            <mxPoint x="179.5" y="245.19" as="targetPoint" />
          </mxGeometry>
        </mxCell>
        <mxCell id="_UI63cZPZsT7YoqHEjW4-34" value="预训练&lt;br&gt;语言&lt;br&gt;模型" style="rounded=1;whiteSpace=wrap;html=1;fillColor=#dae8fc;strokeColor=#6c8ebf;" parent="1" vertex="1">
          <mxGeometry x="179.5" y="110.5" width="50" height="210" as="geometry" />
        </mxCell>
        <mxCell id="_UI63cZPZsT7YoqHEjW4-63" value="" style="rounded=1;whiteSpace=wrap;html=1;" parent="1" vertex="1">
          <mxGeometry x="249.5" y="110.5" width="60" height="210" as="geometry" />
        </mxCell>
        <mxCell id="_UI63cZPZsT7YoqHEjW4-56" value="" style="endArrow=classic;html=1;rounded=0;exitX=1;exitY=0.5;exitDx=0;exitDy=0;endSize=3;" parent="1" edge="1">
          <mxGeometry width="50" height="50" relative="1" as="geometry">
            <mxPoint x="229.5" y="125.19" as="sourcePoint" />
            <mxPoint x="259.5" y="125.5" as="targetPoint" />
          </mxGeometry>
        </mxCell>
        <mxCell id="_UI63cZPZsT7YoqHEjW4-57" value="" style="endArrow=classic;html=1;rounded=0;exitX=1;exitY=0.5;exitDx=0;exitDy=0;endSize=3;" parent="1" edge="1">
          <mxGeometry width="50" height="50" relative="1" as="geometry">
            <mxPoint x="229.5" y="155.19" as="sourcePoint" />
            <mxPoint x="259.5" y="155.5" as="targetPoint" />
          </mxGeometry>
        </mxCell>
        <mxCell id="_UI63cZPZsT7YoqHEjW4-58" value="" style="endArrow=classic;html=1;rounded=0;exitX=1;exitY=0.5;exitDx=0;exitDy=0;endSize=3;" parent="1" edge="1">
          <mxGeometry width="50" height="50" relative="1" as="geometry">
            <mxPoint x="229.5" y="185.19" as="sourcePoint" />
            <mxPoint x="259.5" y="185.5" as="targetPoint" />
          </mxGeometry>
        </mxCell>
        <mxCell id="_UI63cZPZsT7YoqHEjW4-59" value="" style="endArrow=classic;html=1;rounded=0;endSize=3;" parent="1" edge="1">
          <mxGeometry width="50" height="50" relative="1" as="geometry">
            <mxPoint x="229.5" y="305.5" as="sourcePoint" />
            <mxPoint x="259.5" y="305.19" as="targetPoint" />
          </mxGeometry>
        </mxCell>
        <mxCell id="_UI63cZPZsT7YoqHEjW4-60" value="" style="endArrow=classic;html=1;rounded=0;exitX=1;exitY=0.5;exitDx=0;exitDy=0;endSize=3;" parent="1" edge="1">
          <mxGeometry width="50" height="50" relative="1" as="geometry">
            <mxPoint x="229.5" y="215.19" as="sourcePoint" />
            <mxPoint x="259.5" y="215.5" as="targetPoint" />
          </mxGeometry>
        </mxCell>
        <mxCell id="_UI63cZPZsT7YoqHEjW4-61" value="" style="endArrow=classic;html=1;rounded=0;endSize=3;" parent="1" edge="1">
          <mxGeometry width="50" height="50" relative="1" as="geometry">
            <mxPoint x="229.5" y="275.5" as="sourcePoint" />
            <mxPoint x="259.5" y="275.19" as="targetPoint" />
          </mxGeometry>
        </mxCell>
        <mxCell id="_UI63cZPZsT7YoqHEjW4-62" value="" style="endArrow=classic;html=1;rounded=0;endSize=3;entryX=0;entryY=0.5;entryDx=0;entryDy=0;" parent="1" target="_UI63cZPZsT7YoqHEjW4-82" edge="1">
          <mxGeometry width="50" height="50" relative="1" as="geometry">
            <mxPoint x="229.5" y="245.5" as="sourcePoint" />
            <mxPoint x="259.5" y="247.5" as="targetPoint" />
          </mxGeometry>
        </mxCell>
        <mxCell id="_UI63cZPZsT7YoqHEjW4-64" value="LSTM" style="ellipse;whiteSpace=wrap;html=1;fillColor=#dae8fc;strokeColor=#6c8ebf;" parent="1" vertex="1">
          <mxGeometry x="259.5" y="118" width="40" height="15" as="geometry" />
        </mxCell>
        <mxCell id="_UI63cZPZsT7YoqHEjW4-65" value="LSTM" style="ellipse;whiteSpace=wrap;html=1;fillColor=#dae8fc;strokeColor=#6c8ebf;" parent="1" vertex="1">
          <mxGeometry x="259.5" y="148" width="40" height="15" as="geometry" />
        </mxCell>
        <mxCell id="_UI63cZPZsT7YoqHEjW4-68" value="" style="endArrow=classic;html=1;rounded=0;exitX=1;exitY=0.5;exitDx=0;exitDy=0;endSize=3;strokeColor=default;" parent="1" edge="1">
          <mxGeometry width="50" height="50" relative="1" as="geometry">
            <mxPoint x="289.5" y="130.5" as="sourcePoint" />
            <mxPoint x="289.5" y="150.5" as="targetPoint" />
          </mxGeometry>
        </mxCell>
        <mxCell id="_UI63cZPZsT7YoqHEjW4-69" value="" style="endArrow=classic;html=1;rounded=0;exitX=1;exitY=0.5;exitDx=0;exitDy=0;endSize=3;" parent="1" edge="1">
          <mxGeometry width="50" height="50" relative="1" as="geometry">
            <mxPoint x="269.5" y="150.5" as="sourcePoint" />
            <mxPoint x="269.5" y="130.5" as="targetPoint" />
          </mxGeometry>
        </mxCell>
        <mxCell id="_UI63cZPZsT7YoqHEjW4-70" value="LSTM" style="ellipse;whiteSpace=wrap;html=1;fillColor=#dae8fc;strokeColor=#6c8ebf;" parent="1" vertex="1">
          <mxGeometry x="259.5" y="178" width="40" height="15" as="geometry" />
        </mxCell>
        <mxCell id="_UI63cZPZsT7YoqHEjW4-71" value="" style="endArrow=classic;html=1;rounded=0;exitX=1;exitY=0.5;exitDx=0;exitDy=0;endSize=3;strokeColor=default;" parent="1" edge="1">
          <mxGeometry width="50" height="50" relative="1" as="geometry">
            <mxPoint x="289.5" y="160.5" as="sourcePoint" />
            <mxPoint x="289.5" y="180.5" as="targetPoint" />
          </mxGeometry>
        </mxCell>
        <mxCell id="_UI63cZPZsT7YoqHEjW4-72" value="" style="endArrow=classic;html=1;rounded=0;exitX=1;exitY=0.5;exitDx=0;exitDy=0;endSize=3;" parent="1" edge="1">
          <mxGeometry width="50" height="50" relative="1" as="geometry">
            <mxPoint x="269.5" y="180.5" as="sourcePoint" />
            <mxPoint x="269.5" y="160.5" as="targetPoint" />
          </mxGeometry>
        </mxCell>
        <mxCell id="_UI63cZPZsT7YoqHEjW4-73" value="LSTM" style="ellipse;whiteSpace=wrap;html=1;fillColor=#dae8fc;strokeColor=#6c8ebf;" parent="1" vertex="1">
          <mxGeometry x="259.5" y="208" width="40" height="15" as="geometry" />
        </mxCell>
        <mxCell id="_UI63cZPZsT7YoqHEjW4-74" value="" style="endArrow=classic;html=1;rounded=0;exitX=1;exitY=0.5;exitDx=0;exitDy=0;endSize=3;strokeColor=default;" parent="1" edge="1">
          <mxGeometry width="50" height="50" relative="1" as="geometry">
            <mxPoint x="289.5" y="190.5" as="sourcePoint" />
            <mxPoint x="289.5" y="210.5" as="targetPoint" />
          </mxGeometry>
        </mxCell>
        <mxCell id="_UI63cZPZsT7YoqHEjW4-75" value="" style="endArrow=classic;html=1;rounded=0;exitX=1;exitY=0.5;exitDx=0;exitDy=0;endSize=3;" parent="1" edge="1">
          <mxGeometry width="50" height="50" relative="1" as="geometry">
            <mxPoint x="269.5" y="210.5" as="sourcePoint" />
            <mxPoint x="269.5" y="190.5" as="targetPoint" />
          </mxGeometry>
        </mxCell>
        <mxCell id="_UI63cZPZsT7YoqHEjW4-82" value="LSTM" style="ellipse;whiteSpace=wrap;html=1;fillColor=#dae8fc;strokeColor=#6c8ebf;" parent="1" vertex="1">
          <mxGeometry x="259.5" y="238" width="40" height="15" as="geometry" />
        </mxCell>
        <mxCell id="_UI63cZPZsT7YoqHEjW4-83" value="" style="endArrow=classic;html=1;rounded=0;exitX=1;exitY=0.5;exitDx=0;exitDy=0;endSize=3;strokeColor=default;" parent="1" edge="1">
          <mxGeometry width="50" height="50" relative="1" as="geometry">
            <mxPoint x="289.5" y="220.5" as="sourcePoint" />
            <mxPoint x="289.5" y="240.5" as="targetPoint" />
          </mxGeometry>
        </mxCell>
        <mxCell id="_UI63cZPZsT7YoqHEjW4-84" value="" style="endArrow=classic;html=1;rounded=0;exitX=1;exitY=0.5;exitDx=0;exitDy=0;endSize=3;" parent="1" edge="1">
          <mxGeometry width="50" height="50" relative="1" as="geometry">
            <mxPoint x="269.5" y="240.5" as="sourcePoint" />
            <mxPoint x="269.5" y="220.5" as="targetPoint" />
          </mxGeometry>
        </mxCell>
        <mxCell id="_UI63cZPZsT7YoqHEjW4-85" value="LSTM" style="ellipse;whiteSpace=wrap;html=1;fillColor=#dae8fc;strokeColor=#6c8ebf;" parent="1" vertex="1">
          <mxGeometry x="259.5" y="268" width="40" height="15" as="geometry" />
        </mxCell>
        <mxCell id="_UI63cZPZsT7YoqHEjW4-86" value="" style="endArrow=classic;html=1;rounded=0;exitX=1;exitY=0.5;exitDx=0;exitDy=0;endSize=3;strokeColor=default;" parent="1" edge="1">
          <mxGeometry width="50" height="50" relative="1" as="geometry">
            <mxPoint x="289.5" y="250.5" as="sourcePoint" />
            <mxPoint x="289.5" y="270.5" as="targetPoint" />
          </mxGeometry>
        </mxCell>
        <mxCell id="_UI63cZPZsT7YoqHEjW4-87" value="" style="endArrow=classic;html=1;rounded=0;exitX=1;exitY=0.5;exitDx=0;exitDy=0;endSize=3;" parent="1" edge="1">
          <mxGeometry width="50" height="50" relative="1" as="geometry">
            <mxPoint x="269.5" y="270.5" as="sourcePoint" />
            <mxPoint x="269.5" y="250.5" as="targetPoint" />
          </mxGeometry>
        </mxCell>
        <mxCell id="_UI63cZPZsT7YoqHEjW4-88" value="LSTM" style="ellipse;whiteSpace=wrap;html=1;fillColor=#dae8fc;strokeColor=#6c8ebf;" parent="1" vertex="1">
          <mxGeometry x="259.5" y="298" width="40" height="15" as="geometry" />
        </mxCell>
        <mxCell id="_UI63cZPZsT7YoqHEjW4-89" value="" style="endArrow=classic;html=1;rounded=0;exitX=1;exitY=0.5;exitDx=0;exitDy=0;endSize=3;strokeColor=default;" parent="1" edge="1">
          <mxGeometry width="50" height="50" relative="1" as="geometry">
            <mxPoint x="289.5" y="280.5" as="sourcePoint" />
            <mxPoint x="289.5" y="300.5" as="targetPoint" />
          </mxGeometry>
        </mxCell>
        <mxCell id="_UI63cZPZsT7YoqHEjW4-90" value="" style="endArrow=classic;html=1;rounded=0;exitX=1;exitY=0.5;exitDx=0;exitDy=0;endSize=3;" parent="1" edge="1">
          <mxGeometry width="50" height="50" relative="1" as="geometry">
            <mxPoint x="269.5" y="300.5" as="sourcePoint" />
            <mxPoint x="269.5" y="280.5" as="targetPoint" />
          </mxGeometry>
        </mxCell>
        <mxCell id="_UI63cZPZsT7YoqHEjW4-91" value="" style="endArrow=classic;html=1;rounded=0;exitX=1;exitY=0.5;exitDx=0;exitDy=0;endSize=3;" parent="1" edge="1">
          <mxGeometry width="50" height="50" relative="1" as="geometry">
            <mxPoint x="309.5" y="210.5" as="sourcePoint" />
            <mxPoint x="339.5" y="210.5" as="targetPoint" />
          </mxGeometry>
        </mxCell>
        <mxCell id="_UI63cZPZsT7YoqHEjW4-93" value="" style="endArrow=none;dashed=1;html=1;rounded=0;" parent="1" edge="1">
          <mxGeometry width="50" height="50" relative="1" as="geometry">
            <mxPoint x="319.5" y="210.5" as="sourcePoint" />
            <mxPoint x="459.5" y="150.5" as="targetPoint" />
            <Array as="points">
              <mxPoint x="319.5" y="150.5" />
            </Array>
          </mxGeometry>
        </mxCell>
        <mxCell id="_UI63cZPZsT7YoqHEjW4-94" value="" style="endArrow=classic;html=1;rounded=0;exitX=1;exitY=0.5;exitDx=0;exitDy=0;endSize=3;" parent="1" edge="1">
          <mxGeometry width="50" height="50" relative="1" as="geometry">
            <mxPoint x="439.5" y="210.5" as="sourcePoint" />
            <mxPoint x="469.5" y="210.5" as="targetPoint" />
          </mxGeometry>
        </mxCell>
        <mxCell id="_UI63cZPZsT7YoqHEjW4-96" value="MLP" style="rounded=1;whiteSpace=wrap;html=1;direction=west;flipV=0;rotation=90;fillColor=#fff2cc;strokeColor=#d6b656;" parent="1" vertex="1">
          <mxGeometry x="464.5" y="195.5" width="40" height="30" as="geometry" />
        </mxCell>
        <mxCell id="_UI63cZPZsT7YoqHEjW4-98" value="" style="endArrow=classic;html=1;rounded=0;exitX=1;exitY=0.5;exitDx=0;exitDy=0;endSize=3;" parent="1" edge="1">
          <mxGeometry width="50" height="50" relative="1" as="geometry">
            <mxPoint x="459.5" y="150.5" as="sourcePoint" />
            <mxPoint x="469.5" y="150.5" as="targetPoint" />
          </mxGeometry>
        </mxCell>
        <mxCell id="_UI63cZPZsT7YoqHEjW4-99" value="Biaffine" style="rounded=1;whiteSpace=wrap;html=1;direction=west;flipV=0;rotation=90;fillColor=#ffe6cc;strokeColor=#d79b00;" parent="1" vertex="1">
          <mxGeometry x="458.75" y="133.75" width="50" height="32.5" as="geometry" />
        </mxCell>
        <mxCell id="_UI63cZPZsT7YoqHEjW4-104" value="" style="endArrow=classic;html=1;rounded=0;endSize=3;entryX=0.5;entryY=0;entryDx=0;entryDy=0;" parent="1" target="_UI63cZPZsT7YoqHEjW4-107" edge="1">
          <mxGeometry width="50" height="50" relative="1" as="geometry">
            <mxPoint x="523.5" y="150.5" as="sourcePoint" />
            <mxPoint x="519.5" y="170.5" as="targetPoint" />
          </mxGeometry>
        </mxCell>
        <mxCell id="_UI63cZPZsT7YoqHEjW4-105" value="" style="endArrow=none;html=1;rounded=0;exitX=0.5;exitY=1;exitDx=0;exitDy=0;" parent="1" source="_UI63cZPZsT7YoqHEjW4-96" edge="1">
          <mxGeometry width="50" height="50" relative="1" as="geometry">
            <mxPoint x="502.5" y="210.5" as="sourcePoint" />
            <mxPoint x="523" y="210.5" as="targetPoint" />
            <Array as="points" />
          </mxGeometry>
        </mxCell>
        <mxCell id="_UI63cZPZsT7YoqHEjW4-106" value="" style="endArrow=classic;html=1;rounded=0;endSize=3;entryX=0.5;entryY=1;entryDx=0;entryDy=0;" parent="1" target="_UI63cZPZsT7YoqHEjW4-107" edge="1">
          <mxGeometry width="50" height="50" relative="1" as="geometry">
            <mxPoint x="523.5" y="210.5" as="sourcePoint" />
            <mxPoint x="519.5" y="190.5" as="targetPoint" />
          </mxGeometry>
        </mxCell>
        <mxCell id="_UI63cZPZsT7YoqHEjW4-107" value="" style="ellipse;whiteSpace=wrap;html=1;aspect=fixed;" parent="1" vertex="1">
          <mxGeometry x="513.5" y="170.5" width="20" height="20" as="geometry" />
        </mxCell>
        <mxCell id="_UI63cZPZsT7YoqHEjW4-109" value="" style="endArrow=none;html=1;rounded=0;exitX=0.5;exitY=1;exitDx=0;exitDy=0;" parent="1" edge="1">
          <mxGeometry width="50" height="50" relative="1" as="geometry">
            <mxPoint x="500.5" y="150.5" as="sourcePoint" />
            <mxPoint x="523.5" y="150.5" as="targetPoint" />
          </mxGeometry>
        </mxCell>
        <mxCell id="_UI63cZPZsT7YoqHEjW4-111" value="" style="endArrow=none;html=1;rounded=0;entryX=1;entryY=0.5;entryDx=0;entryDy=0;" parent="1" target="_UI63cZPZsT7YoqHEjW4-107" edge="1">
          <mxGeometry width="50" height="50" relative="1" as="geometry">
            <mxPoint x="513.5" y="180.32" as="sourcePoint" />
            <mxPoint x="529.5" y="180.5" as="targetPoint" />
          </mxGeometry>
        </mxCell>
        <mxCell id="_UI63cZPZsT7YoqHEjW4-112" value="" style="endArrow=none;html=1;rounded=0;exitX=0.5;exitY=0;exitDx=0;exitDy=0;entryX=0.5;entryY=1;entryDx=0;entryDy=0;" parent="1" source="_UI63cZPZsT7YoqHEjW4-107" target="_UI63cZPZsT7YoqHEjW4-107" edge="1">
          <mxGeometry width="50" height="50" relative="1" as="geometry">
            <mxPoint x="519.5" y="230.5" as="sourcePoint" />
            <mxPoint x="543" y="230.5" as="targetPoint" />
            <Array as="points" />
          </mxGeometry>
        </mxCell>
        <mxCell id="_UI63cZPZsT7YoqHEjW4-113" value="" style="endArrow=classic;html=1;rounded=0;exitX=1;exitY=0.5;exitDx=0;exitDy=0;" parent="1" source="_UI63cZPZsT7YoqHEjW4-107" edge="1">
          <mxGeometry width="50" height="50" relative="1" as="geometry">
            <mxPoint x="549.5" y="180.5" as="sourcePoint" />
            <mxPoint x="569.5" y="180.5" as="targetPoint" />
          </mxGeometry>
        </mxCell>
        <mxCell id="_UI63cZPZsT7YoqHEjW4-114" value="解码器" style="rounded=0;whiteSpace=wrap;html=1;direction=west;fillColor=#d5e8d4;strokeColor=#82b366;" parent="1" vertex="1">
          <mxGeometry x="569.5" y="160.5" width="70" height="40" as="geometry" />
        </mxCell>
        <mxCell id="_UI63cZPZsT7YoqHEjW4-115" value="" style="endArrow=classic;html=1;rounded=0;exitX=0.5;exitY=0;exitDx=0;exitDy=0;entryX=0.463;entryY=-0.021;entryDx=0;entryDy=0;entryPerimeter=0;" parent="1" source="_UI63cZPZsT7YoqHEjW4-114" target="_UI63cZPZsT7YoqHEjW4-117" edge="1">
          <mxGeometry width="50" height="50" relative="1" as="geometry">
            <mxPoint x="649.5" y="220.5" as="sourcePoint" />
            <mxPoint x="604.5" y="230.5" as="targetPoint" />
          </mxGeometry>
        </mxCell>
        <mxCell id="_UI63cZPZsT7YoqHEjW4-117" value="技术词实体的&lt;br&gt;边界和类别" style="rounded=1;whiteSpace=wrap;html=1;fillColor=#d5e8d4;strokeColor=#82b366;gradientColor=#97d077;" parent="1" vertex="1">
          <mxGeometry x="548.5" y="238.5" width="120" height="60" as="geometry" />
        </mxCell>
      </root>
    </mxGraphModel>
  </diagram>
</mxfile>
